<svg version="1.1" id="Layer_1" xmlns="http://www.w3.org/2000/svg" xmlns:xlink="http://www.w3.org/1999/xlink" x="0px" y="0px"
	 width="100%" viewBox="0 0 1900 1900" enable-background="new 0 0 1900 1900" xml:space="preserve">
<path fill="#FFFFFF" opacity="1.000000" stroke="none" 
	d="
M1737.000000,1901.000000 
	C1158.000000,1901.000000 579.500000,1901.000000 1.000000,1901.000000 
	C1.000000,1267.666626 1.000000,634.333313 1.000000,1.000000 
	C634.333313,1.000000 1267.666626,1.000000 1901.000000,1.000000 
	C1901.000000,634.333313 1901.000000,1267.666626 1901.000000,1901.000000 
	C1846.500000,1901.000000 1792.000000,1901.000000 1737.000000,1901.000000 
M365.294312,860.942749 
	C365.099945,861.299133 364.905609,861.655579 364.205109,862.412170 
	C337.095795,903.568970 331.906860,947.368103 350.214355,993.089783 
	C372.450958,1048.624023 428.442719,1083.898682 490.246155,1078.545654 
	C526.733826,1075.385254 557.520142,1059.608032 581.919922,1032.117798 
	C595.102417,1017.265564 605.016663,1000.446228 610.079590,981.061523 
	C610.079590,981.061523 610.058167,981.140625 610.446716,980.917603 
	C610.589661,980.639587 610.629333,980.347534 610.995117,979.373413 
	C617.435852,956.523743 618.286194,933.475952 613.038940,910.313171 
	C599.030762,848.477722 544.882080,802.439636 477.113586,802.386414 
	C448.329224,802.363770 421.744568,811.082764 398.191040,827.970642 
	C386.533508,836.329163 375.833344,845.774963 367.990540,857.991943 
	C367.990540,857.991943 367.967590,857.925598 367.366302,858.173767 
	C366.823059,859.077881 366.279785,859.982056 365.889038,860.923218 
	C365.889038,860.923218 365.885468,860.766418 365.294312,860.942749 
M994.310242,978.500244 
	C994.311340,970.336914 994.283142,962.173462 994.319702,954.010254 
	C994.388367,938.684875 1000.186707,931.400757 1015.323608,929.540955 
	C1032.460449,927.435425 1046.036377,934.175293 1045.736572,955.286926 
	C1045.398315,979.106018 1045.624390,1002.933716 1045.675415,1026.757568 
	C1045.701172,1038.812744 1051.005737,1044.828857 1062.841675,1045.699341 
	C1069.122681,1046.161255 1075.465576,1045.781128 1082.320679,1045.781128 
	C1082.320679,1043.751343 1082.320557,1041.954590 1082.320557,1040.157837 
	C1082.320435,1014.001526 1082.393433,987.844910 1082.266968,961.689209 
	C1082.236572,955.389221 1082.030396,949.017212 1081.067871,942.808105 
	C1078.168945,924.109009 1069.279541,909.156555 1050.752686,902.755615 
	C1026.382812,894.335754 1002.132141,894.660461 978.949768,907.667114 
	C977.709045,908.363281 975.331848,908.508667 974.247925,907.777527 
	C965.026978,901.557678 954.723389,898.509521 943.860596,897.472778 
	C929.844849,896.135132 915.886536,896.645874 902.548401,901.830383 
	C880.017700,910.587891 871.094360,928.941406 870.383667,951.330933 
	C869.416870,981.788879 870.019226,1012.296692 869.961609,1042.783081 
	C869.960388,1043.412476 870.115906,1044.042236 870.229248,1044.908081 
	C882.325256,1044.908081 894.223694,1044.908081 906.654602,1044.908081 
	C906.654602,1042.890381 906.654541,1041.098633 906.654602,1039.306885 
	C906.655762,1010.484924 906.651306,981.663025 906.661743,952.841064 
	C906.664612,944.865173 908.050110,937.132263 915.495667,932.810547 
	C925.673889,926.902527 936.646118,926.937256 947.083069,931.999817 
	C956.440979,936.538879 957.957092,945.537354 957.951355,954.930420 
	C957.934021,983.085938 957.945435,1011.241455 957.945618,1039.396973 
	C957.945618,1041.177124 957.945679,1042.957397 957.945679,1044.950684 
	C970.255066,1044.950684 982.020630,1044.950684 994.309937,1044.950684 
	C994.309937,1023.057495 994.309937,1001.278931 994.310242,978.500244 
M712.154175,866.679810 
	C698.091797,875.239380 687.483093,886.987610 680.819458,901.988525 
	C667.180664,932.691895 666.858276,964.072937 678.333435,995.306580 
	C686.267822,1016.902710 701.210999,1032.604248 722.955566,1041.113892 
	C745.309204,1049.861816 768.141968,1050.295532 790.983215,1043.553101 
	C814.158142,1036.712158 830.857849,1021.931946 840.696350,999.861206 
	C851.556580,975.498596 853.133667,950.078735 847.623535,924.206909 
	C843.077820,902.863159 833.485962,883.976379 815.218018,871.423889 
	C782.406494,848.878174 747.890137,848.635193 712.154175,866.679810 
M1353.115479,930.314697 
	C1329.021362,930.314697 1304.927368,930.314697 1280.740356,930.314697 
	C1280.740356,916.277527 1280.740356,903.049438 1280.740356,889.187378 
	C1313.594360,889.187378 1346.123535,889.187378 1378.602539,889.187378 
	C1378.602539,878.139465 1378.602539,867.733032 1378.602539,856.969177 
	C1376.448120,856.969177 1374.643188,856.969116 1372.838135,856.969116 
	C1337.027588,856.969055 1301.217163,856.970520 1265.406616,856.968201 
	C1250.898926,856.967285 1242.988892,864.883850 1242.985840,879.488464 
	C1242.975098,932.954346 1242.980957,986.420227 1242.980469,1039.886108 
	C1242.980469,1041.534302 1242.980469,1043.182495 1242.980469,1045.021729 
	C1255.559326,1045.021729 1267.788452,1045.021729 1280.598267,1045.021729 
	C1280.598267,1017.190613 1280.598267,989.664856 1280.598267,961.783691 
	C1282.986084,961.783691 1284.794434,961.783875 1286.602783,961.783630 
	C1302.426025,961.781921 1318.249878,961.867920 1334.072266,961.747864 
	C1344.739258,961.666992 1353.227295,954.074219 1353.998779,943.873230 
	C1354.323242,939.586365 1353.906616,935.243347 1353.115479,930.314697 
M1164.494995,896.993774 
	C1154.661865,898.340149 1144.469482,898.485229 1135.074097,901.295166 
	C1118.060547,906.383362 1108.834106,918.981750 1105.911255,936.833435 
	C1116.092896,936.833435 1125.905518,936.719971 1135.713379,936.892029 
	C1139.377563,936.956299 1142.331299,936.853699 1144.240601,932.833313 
	C1145.103149,931.017151 1147.639160,929.554504 1149.727173,928.836243 
	C1159.967041,925.314087 1170.332642,925.467529 1180.545166,928.969849 
	C1185.320801,930.607666 1188.418335,934.097717 1188.626465,939.339905 
	C1188.839355,944.701782 1185.593262,948.171875 1181.024536,950.019043 
	C1176.758057,951.744019 1172.217163,952.927917 1167.695801,953.857788 
	C1155.503662,956.365051 1142.931763,957.551392 1131.105469,961.193970 
	C1110.628540,967.500916 1100.328125,983.408264 1101.221558,1004.433594 
	C1102.125854,1025.712280 1114.213745,1040.886353 1134.419678,1046.021240 
	C1149.133545,1049.760376 1163.831787,1048.666992 1178.410889,1045.361328 
	C1207.463135,1038.773804 1222.420410,1021.882202 1224.005249,992.207214 
	C1225.008179,973.431519 1224.676758,954.553528 1224.207764,935.739807 
	C1223.811035,919.817993 1215.386475,908.887573 1200.671631,902.951294 
	C1189.403809,898.405640 1177.546265,897.025024 1164.494995,896.993774 
M1459.633667,878.500061 
	C1459.633667,933.926880 1459.633667,989.353638 1459.633667,1044.859375 
	C1471.895874,1044.859375 1483.636230,1044.859375 1495.834595,1044.859375 
	C1495.834595,1042.766968 1495.834595,1040.972900 1495.834595,1039.178955 
	C1495.834595,1005.366211 1495.835083,971.553467 1495.834473,937.740723 
	C1495.834106,917.253174 1495.872070,896.765564 1495.814941,876.278198 
	C1495.786865,866.173096 1489.955322,858.570435 1480.269897,857.348938 
	C1473.616699,856.509888 1466.771973,857.188110 1459.634277,857.188110 
	C1459.634277,864.217285 1459.634277,870.858704 1459.633667,878.500061 
M1432.334961,993.500183 
	C1432.346802,967.502869 1432.364746,941.505493 1432.367188,915.508179 
	C1432.368164,906.077271 1428.033569,900.429932 1418.812866,899.533691 
	C1411.450317,898.817993 1403.962646,899.389099 1396.335083,899.389099 
	C1396.335083,948.040344 1396.335083,996.440979 1396.335083,1045.084961 
	C1408.356934,1045.084961 1420.105103,1045.084961 1432.334229,1045.084961 
	C1432.334229,1028.085571 1432.334229,1011.292908 1432.334961,993.500183 
M1397.732422,885.141602 
	C1409.150635,885.141602 1420.568848,885.141602 1432.263794,885.141602 
	C1432.263794,879.943848 1432.575439,875.279297 1432.184204,870.674500 
	C1431.703003,865.010437 1429.199829,859.784790 1423.265991,858.797241 
	C1414.436646,857.327637 1405.403442,857.082764 1396.795654,856.345642 
	C1396.795654,866.839539 1396.795654,875.888855 1397.732422,885.141602 
M686.571838,1090.415161 
	C686.571838,1093.160156 686.571838,1095.905273 686.571838,1098.922607 
	C688.767700,1098.767822 690.174133,1098.668823 691.920044,1098.545776 
	C691.920044,1094.061890 691.920105,1089.926514 691.920044,1085.791260 
	C691.919861,1074.989136 691.921204,1075.152954 702.951599,1075.061646 
	C707.579529,1075.023438 709.203979,1076.908325 709.072815,1081.305908 
	C708.900940,1087.068237 709.030640,1092.839722 709.030640,1098.591187 
	C711.304260,1098.591187 712.892517,1098.591187 714.956238,1098.591187 
	C714.956238,1092.716187 715.105164,1087.088867 714.909851,1081.473389 
	C714.748779,1076.843262 716.421265,1074.506836 721.308594,1075.118774 
	C722.455627,1075.262451 723.643066,1075.225220 724.799500,1075.125854 
	C729.344299,1074.735352 731.111755,1076.851074 730.966492,1081.309204 
	C730.779297,1087.053101 730.920837,1092.807739 730.920837,1098.906006 
	C733.123657,1098.763550 734.676147,1098.663086 736.511597,1098.544312 
	C736.511597,1092.824463 736.532654,1087.514648 736.506592,1082.205200 
	C736.469055,1074.541992 734.362244,1072.350708 726.745178,1072.381226 
	C721.122070,1072.403687 715.500122,1072.788086 709.877258,1072.800049 
	C704.402222,1072.811646 698.920654,1072.334351 693.453247,1072.484253 
	C688.893127,1072.609497 686.568604,1075.348877 686.577026,1079.963867 
	C686.582825,1083.125854 686.574219,1086.287842 686.571838,1090.415161 
M1174.582275,1072.559204 
	C1172.917969,1072.559937 1171.253296,1072.537354 1169.589478,1072.565552 
	C1163.081665,1072.676147 1160.925415,1074.817627 1160.876465,1081.229004 
	C1160.853638,1084.224609 1160.832642,1087.221191 1160.879272,1090.216187 
	C1160.971924,1096.172485 1163.428345,1098.745117 1169.368530,1098.808105 
	C1178.021973,1098.899902 1186.678101,1098.891846 1195.330322,1098.754395 
	C1196.514404,1098.735718 1197.682495,1097.726196 1198.857910,1097.175293 
	C1197.715332,1096.592651 1196.582642,1095.529175 1195.428711,1095.505615 
	C1187.942383,1095.353394 1180.451294,1095.449829 1172.962036,1095.420654 
	C1166.683716,1095.396118 1165.685547,1093.911987 1167.555176,1087.199097 
	C1175.302856,1087.199097 1183.118774,1087.258057 1190.933105,1087.177734 
	C1195.923706,1087.126343 1198.605713,1084.522095 1198.596313,1080.024414 
	C1198.586914,1075.520264 1195.896362,1072.742920 1191.035400,1072.601929 
	C1185.880371,1072.452271 1180.717773,1072.562622 1174.582275,1072.559204 
M842.655884,1098.828125 
	C851.077881,1098.828125 859.499817,1098.828125 867.921814,1098.828125 
	C868.158020,1098.304810 868.394165,1097.781372 868.630371,1097.258057 
	C867.568420,1096.647095 866.515869,1095.526367 865.442932,1095.506592 
	C857.301086,1095.356567 849.154419,1095.353516 841.011047,1095.452393 
	C837.505737,1095.494873 836.428162,1093.669922 836.240356,1090.532959 
	C836.018555,1086.828857 838.440674,1087.180054 840.822998,1087.191284 
	C847.139038,1087.221313 853.455566,1087.230347 859.771545,1087.193237 
	C865.590515,1087.158936 868.259705,1084.814575 868.239807,1079.863281 
	C868.220398,1075.034668 865.451843,1072.626099 859.642151,1072.573364 
	C852.827820,1072.511353 846.011963,1072.507202 839.197754,1072.575073 
	C832.873779,1072.637939 830.796570,1074.721436 830.710327,1080.887085 
	C830.677795,1083.213623 830.703125,1085.541016 830.705261,1087.868042 
	C830.713806,1097.144653 832.406433,1098.829590 842.655884,1098.828125 
M765.488953,1084.091797 
	C760.491272,1084.092651 755.490417,1083.980957 750.496887,1084.125610 
	C745.414734,1084.272583 742.804260,1086.874512 742.859253,1091.373779 
	C742.912292,1095.712524 745.755188,1098.682983 750.557861,1098.795654 
	C758.049988,1098.971436 765.554199,1098.993652 773.044189,1098.773315 
	C777.980591,1098.628174 780.289124,1096.087158 780.447083,1091.212036 
	C780.565674,1087.551025 780.561096,1083.880127 780.444519,1080.218872 
	C780.272949,1074.828125 778.194214,1072.619995 772.773682,1072.529785 
	C763.613831,1072.377319 754.449524,1072.452515 745.287842,1072.522339 
	C744.402893,1072.529053 743.522827,1073.169678 742.640503,1073.515991 
	C742.701599,1073.945557 742.762756,1074.375244 742.823914,1074.804932 
	C744.172607,1074.917603 745.520874,1075.121094 746.870056,1075.127563 
	C753.700012,1075.160400 760.530151,1075.138672 767.360229,1075.142090 
	C774.974854,1075.145752 775.443542,1075.713867 774.330505,1084.091797 
	C771.760071,1084.091797 769.122681,1084.091797 765.488953,1084.091797 
M1228.493774,1098.828003 
	C1232.150146,1098.828003 1235.813721,1098.958618 1239.458618,1098.753906 
	C1240.657471,1098.686523 1241.807373,1097.750610 1242.979614,1097.211792 
	C1241.859131,1096.616333 1240.749023,1095.529419 1239.616333,1095.505249 
	C1232.307007,1095.349976 1224.992798,1095.439941 1217.680176,1095.424072 
	C1210.908936,1095.409424 1210.110840,1094.323730 1211.772217,1087.192017 
	C1219.688110,1087.192017 1227.659546,1087.263672 1235.628784,1087.163696 
	C1240.047363,1087.108398 1242.855957,1084.270142 1242.989014,1080.097656 
	C1243.118042,1076.043945 1240.286499,1072.761841 1235.953857,1072.656616 
	C1227.981934,1072.462769 1220.000854,1072.535034 1212.025391,1072.634766 
	C1207.564819,1072.690552 1205.388062,1075.361816 1205.201416,1079.614624 
	C1205.034058,1083.429443 1204.981323,1087.265991 1205.185791,1091.076416 
	C1205.471069,1096.395630 1208.028931,1098.703003 1213.536133,1098.812378 
	C1218.187866,1098.904663 1222.842773,1098.829102 1228.493774,1098.828003 
M1036.150757,1081.916382 
	C1035.995483,1075.067749 1034.474609,1072.695068 1029.219849,1072.535034 
	C1020.916382,1072.282227 1012.597778,1072.347046 1004.289673,1072.499146 
	C999.961609,1072.578369 997.562988,1075.137207 997.394775,1079.453247 
	C997.239502,1083.436523 997.164551,1087.441528 997.400330,1091.416504 
	C997.679565,1096.125000 1000.359863,1098.702881 1005.106934,1098.794067 
	C1012.750793,1098.940918 1020.401367,1098.928345 1028.045776,1098.794678 
	C1033.396118,1098.701172 1035.936890,1096.079224 1036.135132,1090.780640 
	C1036.234497,1088.124512 1036.151123,1085.461792 1036.150757,1081.916382 
M990.969849,1074.989258 
	C990.450439,1070.417358 987.750793,1072.776733 985.250488,1073.006348 
	C985.250488,1076.576050 985.250488,1079.848389 985.250488,1083.585449 
	C979.597046,1083.585449 974.306885,1083.585449 969.016785,1083.585571 
	C959.197449,1083.585815 959.201233,1083.585571 958.689392,1073.693970 
	C958.674683,1073.409668 958.385498,1073.139404 957.954224,1072.398560 
	C956.486755,1072.486938 954.792480,1072.588989 953.182556,1072.685913 
	C952.178162,1084.802490 953.781250,1086.612915 965.038391,1086.642944 
	C971.656677,1086.660522 978.275085,1086.646240 984.816650,1086.646240 
	C986.177856,1094.093750 985.147583,1095.401978 978.178040,1095.422241 
	C971.011536,1095.443115 963.843811,1095.364258 956.679443,1095.488281 
	C955.615601,1095.506592 954.567017,1096.400146 953.511353,1096.888794 
	C954.581238,1097.536499 955.641418,1098.726929 956.722534,1098.746338 
	C965.386353,1098.900879 974.055176,1098.916626 982.720337,1098.805176 
	C988.321777,1098.733276 990.802063,1096.140137 990.934753,1090.396606 
	C991.046387,1085.565918 990.959900,1080.730469 990.969849,1074.989258 
M1398.496338,1098.826416 
	C1402.156250,1098.828857 1405.823242,1098.977661 1409.474121,1098.797363 
	C1414.224609,1098.562988 1416.786987,1095.944702 1416.958984,1091.224854 
	C1417.098389,1087.403687 1417.002197,1083.573242 1416.981079,1079.747192 
	C1416.956909,1075.369263 1414.726440,1072.684204 1410.387207,1072.570679 
	C1401.910889,1072.348999 1393.421021,1072.333618 1384.944824,1072.547607 
	C1380.368652,1072.663208 1378.121948,1075.483521 1378.150757,1080.079468 
	C1378.172607,1083.572876 1378.097534,1087.067627 1378.166260,1090.559814 
	C1378.274048,1096.028198 1380.938965,1098.674805 1386.524536,1098.812866 
	C1390.182129,1098.903442 1393.843750,1098.827637 1398.496338,1098.826416 
M818.628540,1078.573364 
	C817.531799,1080.220337 816.506226,1083.232422 815.326721,1083.293945 
	C807.274353,1083.714111 799.189697,1083.514160 790.592163,1083.514160 
	C790.592163,1079.408569 790.592163,1076.010376 790.592163,1072.225708 
	C788.629395,1072.441528 787.252930,1072.592896 785.975830,1072.733276 
	C785.975830,1081.609009 785.975830,1090.043457 785.975830,1098.809814 
	C787.632751,1098.723389 789.021484,1098.650879 790.903931,1098.552734 
	C790.903931,1094.431519 790.903931,1090.678467 790.903931,1086.465088 
	C799.194336,1086.465088 806.993042,1086.229980 814.751282,1086.684570 
	C816.127625,1086.765137 817.934570,1089.542725 818.468018,1091.385986 
	C819.115173,1093.622192 818.621643,1096.188477 818.621643,1098.911011 
	C820.881042,1098.775879 822.438782,1098.682617 823.307251,1098.630615 
	C823.307251,1089.817261 823.307251,1081.463013 823.307251,1072.841919 
	C822.164246,1072.841919 820.494385,1072.841919 818.630981,1072.841919 
	C818.630981,1074.720703 818.630981,1076.203369 818.628540,1078.573364 
M1042.512329,1076.887329 
	C1042.514893,1081.720459 1042.447144,1086.554810 1042.540527,1091.386230 
	C1042.628906,1095.957153 1045.108643,1098.626709 1049.632935,1098.745605 
	C1057.127197,1098.942383 1064.633545,1098.927246 1072.128662,1098.744263 
	C1076.508667,1098.637329 1079.516846,1096.261475 1079.716309,1091.726074 
	C1079.992065,1085.458618 1079.785522,1079.169922 1079.785522,1072.761108 
	C1077.608765,1072.761108 1075.888184,1072.761108 1073.936157,1072.761108 
	C1073.936157,1078.926880 1073.863525,1084.750000 1073.964233,1090.570068 
	C1074.022217,1093.920044 1072.748413,1095.417725 1069.234131,1095.291016 
	C1063.907959,1095.098877 1058.555054,1094.999878 1053.241211,1095.320801 
	C1048.875366,1095.584473 1047.715088,1093.609497 1047.823486,1089.713135 
	C1047.979736,1084.092407 1047.863403,1078.464111 1047.863403,1072.721558 
	C1044.791260,1072.311035 1041.889282,1071.398682 1042.512329,1076.887329 
M1435.524414,1086.646118 
	C1444.157471,1086.646118 1452.790527,1086.646118 1461.423462,1086.646118 
	C1461.441772,1085.868164 1461.460083,1085.090210 1461.478394,1084.312256 
	C1450.705078,1084.312256 1439.931885,1084.312256 1429.334717,1084.312256 
	C1428.232544,1076.401001 1429.245483,1075.149658 1435.815063,1075.140991 
	C1443.297119,1075.131226 1450.779663,1075.183350 1458.260742,1075.096924 
	C1459.371826,1075.084106 1460.475830,1074.459473 1461.583130,1074.117920 
	C1461.488159,1073.651001 1461.393188,1073.183960 1461.298218,1072.717041 
	C1450.411011,1072.717041 1439.512695,1072.472900 1428.647461,1072.962646 
	C1426.881958,1073.042358 1423.985718,1076.257812 1423.808472,1078.221924 
	C1423.202515,1084.935181 1423.576172,1091.736694 1423.576172,1098.628174 
	C1425.396973,1098.628174 1426.823486,1098.628174 1428.922607,1098.628174 
	C1428.922607,1094.541382 1428.922607,1090.666748 1428.922607,1086.645752 
	C1431.240723,1086.645752 1432.885864,1086.645752 1435.524414,1086.646118 
M1141.481567,1072.488281 
	C1135.654785,1072.492310 1129.824341,1072.371582 1124.002197,1072.538086 
	C1118.855103,1072.685181 1116.522949,1074.802490 1116.353027,1079.790527 
	C1116.149292,1085.769897 1116.395508,1091.765015 1116.482300,1097.752686 
	C1116.486206,1098.018188 1116.841553,1098.278687 1117.057983,1098.575439 
	C1118.456787,1098.575439 1119.862793,1098.575439 1121.804077,1098.575439 
	C1121.804077,1094.555908 1121.804077,1090.803589 1121.804077,1086.648193 
	C1131.274048,1086.648193 1140.214355,1086.718872 1149.151978,1086.587891 
	C1150.916504,1086.562012 1152.669800,1085.759888 1154.428223,1085.315796 
	C1152.598511,1084.787964 1150.776489,1083.836914 1148.937988,1083.804199 
	C1140.013184,1083.645264 1131.084106,1083.732422 1122.241455,1083.732422 
	C1121.248291,1076.406616 1122.298828,1075.151489 1128.938232,1075.142700 
	C1136.429932,1075.132935 1143.921875,1075.174072 1151.413086,1075.111450 
	C1152.487061,1075.102539 1153.557129,1074.635132 1154.629028,1074.379883 
	C1154.585693,1073.749512 1154.542480,1073.119019 1154.499146,1072.488647 
	C1150.489868,1072.488647 1146.480469,1072.488647 1141.481567,1072.488281 
M1560.452759,836.849243 
	C1560.917969,835.783752 1561.526855,834.756836 1561.824951,833.646484 
	C1563.699829,826.662781 1560.663574,819.482117 1554.494385,816.143860 
	C1547.939575,812.597046 1539.948120,813.939087 1534.903564,819.434021 
	C1530.093628,824.673340 1529.665527,832.257996 1533.838379,838.305908 
	C1540.143311,847.443604 1552.734131,847.055969 1560.452759,836.849243 
M899.265320,1072.466553 
	C894.634277,1073.083618 892.723145,1075.862427 892.828125,1080.380615 
	C892.913208,1084.040283 892.783569,1087.704956 892.870605,1091.364502 
	C892.945862,1094.531494 891.380798,1095.947021 888.354736,1095.964233 
	C884.693359,1095.985107 881.027161,1095.869141 877.373413,1096.036499 
	C876.529480,1096.075195 875.727234,1097.023926 874.905823,1097.553833 
	C875.649658,1097.983154 876.385376,1098.766602 877.138611,1098.783691 
	C881.796021,1098.889771 886.467896,1099.015259 891.114624,1098.761963 
	C896.140991,1098.487915 898.122498,1096.195923 898.265076,1091.053955 
	C898.348083,1088.060303 898.280884,1085.062622 898.286133,1082.066772 
	C898.297668,1075.432007 898.615845,1075.122803 905.463440,1075.113525 
	C909.070190,1075.108643 912.676941,1075.112671 916.283691,1075.112671 
	C916.293396,1074.198486 916.303162,1073.284180 916.312927,1072.369995 
	C910.916992,1072.369995 905.521057,1072.369995 899.265320,1072.466553 
M1489.858276,1086.484985 
	C1489.858276,1082.846191 1489.858276,1079.207275 1489.858276,1074.601074 
	C1495.596680,1074.601074 1500.908569,1074.601074 1506.220337,1074.601074 
	C1501.021362,1071.619995 1469.904053,1072.223267 1467.337769,1075.061279 
	C1473.250244,1075.061279 1478.573608,1075.061279 1484.424316,1075.061279 
	C1484.424316,1083.325684 1484.424316,1090.916992 1484.424316,1098.911743 
	C1486.558716,1098.717896 1488.103271,1098.577515 1489.858276,1098.418091 
	C1489.858276,1094.441162 1489.858276,1090.957886 1489.858276,1086.484985 
M1361.529297,1072.354126 
	C1360.531128,1072.353882 1359.532837,1072.349121 1358.534668,1072.354004 
	C1350.103638,1072.395142 1348.348511,1074.170410 1348.331055,1082.677979 
	C1348.325317,1085.506226 1348.293335,1088.334839 1348.334351,1091.162476 
	C1348.382324,1094.464478 1346.875366,1096.072266 1343.501831,1095.991821 
	C1340.010132,1095.908447 1336.512329,1095.893921 1333.023071,1096.016479 
	C1332.019897,1096.051636 1331.036987,1096.665527 1330.044800,1097.014160 
	C1330.132080,1097.618286 1330.219238,1098.222290 1330.306396,1098.826416 
	C1333.170166,1098.826416 1336.033936,1098.826294 1338.897705,1098.826416 
	C1353.787109,1098.826660 1353.787231,1098.826660 1353.789307,1083.843628 
	C1353.790649,1075.111694 1353.790527,1075.111816 1362.742920,1075.112793 
	C1365.792969,1075.113037 1368.843018,1075.112793 1371.893066,1075.112793 
	C1371.884033,1074.193359 1371.875122,1073.273804 1371.866211,1072.354370 
	C1368.737549,1072.354370 1365.609009,1072.354370 1361.529297,1072.354126 
M1249.330566,1076.859375 
	C1249.332886,1081.509155 1249.255371,1086.160767 1249.358032,1090.808350 
	C1249.482056,1096.427124 1251.695557,1098.735229 1257.229126,1098.799072 
	C1266.361450,1098.904541 1275.496094,1098.856934 1284.629150,1098.791260 
	C1285.671265,1098.783691 1286.709717,1098.248291 1287.749878,1097.957520 
	C1287.704956,1097.430908 1287.660034,1096.904175 1287.615234,1096.377441 
	C1286.110596,1096.250488 1284.606445,1096.019531 1283.101440,1096.013916 
	C1275.462769,1095.985596 1267.822754,1095.945312 1260.185303,1096.055176 
	C1256.417114,1096.109253 1254.725342,1094.580078 1254.825073,1090.715210 
	C1254.977905,1084.796753 1254.865234,1078.871460 1254.865234,1072.798584 
	C1251.817749,1072.490845 1248.807495,1071.260254 1249.330566,1076.859375 
z"/>
<path fill="#E94F1C" opacity="1.000000" stroke="none" 
	d="
M610.161499,981.068726 
	C605.016663,1000.446228 595.102417,1017.265564 581.919922,1032.117798 
	C557.520142,1059.608032 526.733826,1075.385254 490.246155,1078.545654 
	C428.442719,1083.898682 372.450958,1048.624023 350.214355,993.089783 
	C331.906860,947.368103 337.095795,903.568970 364.750946,862.109375 
	C365.493011,861.459900 365.689270,861.113159 365.885498,860.766418 
	C365.885468,860.766418 365.889038,860.923218 366.149933,860.826050 
	C366.929749,859.794434 367.448669,858.859985 367.967590,857.925598 
	C367.967590,857.925598 367.990540,857.991943 368.307709,857.976074 
	C370.387604,856.478760 372.287903,855.131836 373.890228,853.493469 
	C382.611420,844.576416 392.750732,837.570557 404.083282,832.615356 
	C433.485870,819.758728 463.380493,819.038818 493.202515,830.999023 
	C514.611145,839.585144 532.765686,852.606079 545.787537,872.159790 
	C555.436584,886.648865 560.222656,902.747192 561.797058,919.813538 
	C562.379272,926.125549 561.299316,932.590942 560.882996,938.584106 
	C559.604370,916.073669 550.781982,897.641113 534.943176,882.139648 
	C506.572327,854.373108 464.308716,850.530457 431.697784,873.147217 
	C414.919220,884.783691 403.994019,900.591614 397.736938,920.217529 
	C395.652710,929.847107 392.782593,939.177429 392.278992,948.633850 
	C391.496857,963.318542 394.885742,977.637390 399.998901,991.422668 
	C408.334839,1013.896484 422.046875,1032.173340 443.916138,1042.785156 
	C467.486694,1054.222656 492.789429,1056.307251 518.215027,1051.537598 
	C549.169373,1045.730835 573.823853,1028.745361 593.532288,1004.555908 
	C599.577637,997.136108 604.645874,988.920166 610.161499,981.068726 
z"/>
<path fill="#F39202" opacity="1.000000" stroke="none" 
	d="
M560.977417,938.986389 
	C561.299316,932.590942 562.379272,926.125549 561.797058,919.813538 
	C560.222656,902.747192 555.436584,886.648865 545.787537,872.159790 
	C532.765686,852.606079 514.611145,839.585144 493.202515,830.999023 
	C463.380493,819.038818 433.485870,819.758728 404.083282,832.615356 
	C392.750732,837.570557 382.611420,844.576416 373.890228,853.493469 
	C372.287903,855.131836 370.387604,856.478760 368.273987,857.966431 
	C375.833344,845.774963 386.533508,836.329163 398.191040,827.970642 
	C421.744568,811.082764 448.329224,802.363770 477.113586,802.386414 
	C544.882080,802.439636 599.030762,848.477722 613.038940,910.313171 
	C618.286194,933.475952 617.435852,956.523743 610.652466,979.869507 
	C610.161438,980.603027 610.077576,980.861389 610.058167,981.140625 
	C610.058167,981.140625 610.079590,981.061523 610.120605,981.065186 
	C604.645874,988.920166 599.577637,997.136108 593.532288,1004.555908 
	C573.823853,1028.745361 549.169373,1045.730835 518.215027,1051.537598 
	C492.789429,1056.307251 467.486694,1054.222656 443.916138,1042.785156 
	C422.046875,1032.173340 408.334839,1013.896484 399.998901,991.422668 
	C394.885742,977.637390 391.496857,963.318542 392.278992,948.633850 
	C392.782593,939.177429 395.652710,929.847107 397.749268,920.635071 
	C391.110931,954.619446 400.309509,983.012451 426.948029,1005.218567 
	C460.240631,1032.971558 513.429565,1027.537109 540.988220,994.121948 
	C554.273865,978.012939 560.405090,959.572510 560.977417,938.986389 
z"/>
<path fill="#285293" opacity="1.000000" stroke="none" 
	d="
M994.310059,979.000244 
	C994.309937,1001.278931 994.309937,1023.057495 994.309937,1044.950684 
	C982.020630,1044.950684 970.255066,1044.950684 957.945679,1044.950684 
	C957.945679,1042.957397 957.945618,1041.177124 957.945618,1039.396973 
	C957.945435,1011.241455 957.934021,983.085938 957.951355,954.930420 
	C957.957092,945.537354 956.440979,936.538879 947.083069,931.999817 
	C936.646118,926.937256 925.673889,926.902527 915.495667,932.810547 
	C908.050110,937.132263 906.664612,944.865173 906.661743,952.841064 
	C906.651306,981.663025 906.655762,1010.484924 906.654602,1039.306885 
	C906.654541,1041.098633 906.654602,1042.890381 906.654602,1044.908081 
	C894.223694,1044.908081 882.325256,1044.908081 870.229248,1044.908081 
	C870.115906,1044.042236 869.960388,1043.412476 869.961609,1042.783081 
	C870.019226,1012.296692 869.416870,981.788879 870.383667,951.330933 
	C871.094360,928.941406 880.017700,910.587891 902.548401,901.830383 
	C915.886536,896.645874 929.844849,896.135132 943.860596,897.472778 
	C954.723389,898.509521 965.026978,901.557678 974.247925,907.777527 
	C975.331848,908.508667 977.709045,908.363281 978.949768,907.667114 
	C1002.132141,894.660461 1026.382812,894.335754 1050.752686,902.755615 
	C1069.279541,909.156555 1078.168945,924.109009 1081.067871,942.808105 
	C1082.030396,949.017212 1082.236572,955.389221 1082.266968,961.689209 
	C1082.393433,987.844910 1082.320435,1014.001526 1082.320557,1040.157837 
	C1082.320557,1041.954590 1082.320679,1043.751343 1082.320679,1045.781128 
	C1075.465576,1045.781128 1069.122681,1046.161255 1062.841675,1045.699341 
	C1051.005737,1044.828857 1045.701172,1038.812744 1045.675415,1026.757568 
	C1045.624390,1002.933716 1045.398315,979.106018 1045.736572,955.286926 
	C1046.036377,934.175293 1032.460449,927.435425 1015.323608,929.540955 
	C1000.186707,931.400757 994.388367,938.684875 994.319702,954.010254 
	C994.283142,962.173462 994.311340,970.336914 994.310059,979.000244 
z"/>
<path fill="#285293" opacity="1.000000" stroke="none" 
	d="
M712.459595,866.482056 
	C747.890137,848.635193 782.406494,848.878174 815.218018,871.423889 
	C833.485962,883.976379 843.077820,902.863159 847.623535,924.206909 
	C853.133667,950.078735 851.556580,975.498596 840.696350,999.861206 
	C830.857849,1021.931946 814.158142,1036.712158 790.983215,1043.553101 
	C768.141968,1050.295532 745.309204,1049.861816 722.955566,1041.113892 
	C701.210999,1032.604248 686.267822,1016.902710 678.333435,995.306580 
	C666.858276,964.072937 667.180664,932.691895 680.819458,901.988525 
	C687.483093,886.987610 698.091797,875.239380 712.459595,866.482056 
M800.943665,996.378662 
	C815.406006,972.098572 815.939453,946.294495 807.619873,920.305054 
	C800.482666,898.009033 783.134766,886.834229 759.608459,887.067627 
	C736.857788,887.293274 720.337463,898.925476 713.081543,921.000549 
	C706.056396,942.373047 706.349060,964.044128 714.269226,985.125366 
	C720.807922,1002.529541 733.573730,1013.465393 752.342957,1015.661377 
	C771.453369,1017.897461 788.501587,1013.591675 800.943665,996.378662 
z"/>
<path fill="#F39202" opacity="1.000000" stroke="none" 
	d="
M1353.471191,930.620300 
	C1353.906616,935.243347 1354.323242,939.586365 1353.998779,943.873230 
	C1353.227295,954.074219 1344.739258,961.666992 1334.072266,961.747864 
	C1318.249878,961.867920 1302.426025,961.781921 1286.602783,961.783630 
	C1284.794434,961.783875 1282.986084,961.783691 1280.598267,961.783691 
	C1280.598267,989.664856 1280.598267,1017.190613 1280.598267,1045.021729 
	C1267.788452,1045.021729 1255.559326,1045.021729 1242.980469,1045.021729 
	C1242.980469,1043.182495 1242.980469,1041.534302 1242.980469,1039.886108 
	C1242.980957,986.420227 1242.975098,932.954346 1242.985840,879.488464 
	C1242.988892,864.883850 1250.898926,856.967285 1265.406616,856.968201 
	C1301.217163,856.970520 1337.027588,856.969055 1372.838135,856.969116 
	C1374.643188,856.969116 1376.448120,856.969177 1378.602539,856.969177 
	C1378.602539,867.733032 1378.602539,878.139465 1378.602539,889.187378 
	C1346.123535,889.187378 1313.594360,889.187378 1280.740356,889.187378 
	C1280.740356,903.049438 1280.740356,916.277527 1280.740356,930.314697 
	C1304.927368,930.314697 1329.021362,930.314697 1353.471191,930.620300 
z"/>
<path fill="#285293" opacity="1.000000" stroke="none" 
	d="
M1164.990479,896.995483 
	C1177.546265,897.025024 1189.403809,898.405640 1200.671631,902.951294 
	C1215.386475,908.887573 1223.811035,919.817993 1224.207764,935.739807 
	C1224.676758,954.553528 1225.008179,973.431519 1224.005249,992.207214 
	C1222.420410,1021.882202 1207.463135,1038.773804 1178.410889,1045.361328 
	C1163.831787,1048.666992 1149.133545,1049.760376 1134.419678,1046.021240 
	C1114.213745,1040.886353 1102.125854,1025.712280 1101.221558,1004.433594 
	C1100.328125,983.408264 1110.628540,967.500916 1131.105469,961.193970 
	C1142.931763,957.551392 1155.503662,956.365051 1167.695801,953.857788 
	C1172.217163,952.927917 1176.758057,951.744019 1181.024536,950.019043 
	C1185.593262,948.171875 1188.839355,944.701782 1188.626465,939.339905 
	C1188.418335,934.097717 1185.320801,930.607666 1180.545166,928.969849 
	C1170.332642,925.467529 1159.967041,925.314087 1149.727173,928.836243 
	C1147.639160,929.554504 1145.103149,931.017151 1144.240601,932.833313 
	C1142.331299,936.853699 1139.377563,936.956299 1135.713379,936.892029 
	C1125.905518,936.719971 1116.092896,936.833435 1105.911255,936.833435 
	C1108.834106,918.981750 1118.060547,906.383362 1135.074097,901.295166 
	C1144.469482,898.485229 1154.661865,898.340149 1164.990479,896.995483 
M1188.677979,992.882935 
	C1188.677979,985.974182 1188.677979,979.065369 1188.677979,972.355896 
	C1176.136108,975.777649 1163.588013,978.946167 1151.230347,982.735107 
	C1147.732910,983.807495 1144.291016,986.198059 1141.686157,988.835876 
	C1132.983643,997.648254 1136.862427,1014.250305 1148.153198,1017.684509 
	C1166.279419,1023.197815 1184.618896,1012.306519 1188.677979,992.882935 
z"/>
<path fill="#F39202" opacity="1.000000" stroke="none" 
	d="
M1459.634033,878.000122 
	C1459.634277,870.858704 1459.634277,864.217285 1459.634277,857.188110 
	C1466.771973,857.188110 1473.616699,856.509888 1480.269897,857.348938 
	C1489.955322,858.570435 1495.786865,866.173096 1495.814941,876.278198 
	C1495.872070,896.765564 1495.834106,917.253174 1495.834473,937.740723 
	C1495.835083,971.553467 1495.834595,1005.366211 1495.834595,1039.178955 
	C1495.834595,1040.972900 1495.834595,1042.766968 1495.834595,1044.859375 
	C1483.636230,1044.859375 1471.895874,1044.859375 1459.633667,1044.859375 
	C1459.633667,989.353638 1459.633667,933.926880 1459.634033,878.000122 
z"/>
<path fill="#F39202" opacity="1.000000" stroke="none" 
	d="
M1432.334595,994.000244 
	C1432.334229,1011.292908 1432.334229,1028.085571 1432.334229,1045.084961 
	C1420.105103,1045.084961 1408.356934,1045.084961 1396.335083,1045.084961 
	C1396.335083,996.440979 1396.335083,948.040344 1396.335083,899.389099 
	C1403.962646,899.389099 1411.450317,898.817993 1418.812866,899.533691 
	C1428.033569,900.429932 1432.368164,906.077271 1432.367188,915.508179 
	C1432.364746,941.505493 1432.346802,967.502869 1432.334595,994.000244 
z"/>
<path fill="#F39202" opacity="1.000000" stroke="none" 
	d="
M1397.264038,885.039917 
	C1396.795654,875.888855 1396.795654,866.839539 1396.795654,856.345642 
	C1405.403442,857.082764 1414.436646,857.327637 1423.265991,858.797241 
	C1429.199829,859.784790 1431.703003,865.010437 1432.184204,870.674500 
	C1432.575439,875.279297 1432.263794,879.943848 1432.263794,885.141602 
	C1420.568848,885.141602 1409.150635,885.141602 1397.264038,885.039917 
z"/>
<path fill="#2A4168" opacity="1.000000" stroke="none" 
	d="
M686.571899,1089.932495 
	C686.574219,1086.287842 686.582825,1083.125854 686.577026,1079.963867 
	C686.568604,1075.348877 688.893127,1072.609497 693.453247,1072.484253 
	C698.920654,1072.334351 704.402222,1072.811646 709.877258,1072.800049 
	C715.500122,1072.788086 721.122070,1072.403687 726.745178,1072.381226 
	C734.362244,1072.350708 736.469055,1074.541992 736.506592,1082.205200 
	C736.532654,1087.514648 736.511597,1092.824463 736.511597,1098.544312 
	C734.676147,1098.663086 733.123657,1098.763550 730.920837,1098.906006 
	C730.920837,1092.807739 730.779297,1087.053101 730.966492,1081.309204 
	C731.111755,1076.851074 729.344299,1074.735352 724.799500,1075.125854 
	C723.643066,1075.225220 722.455627,1075.262451 721.308594,1075.118774 
	C716.421265,1074.506836 714.748779,1076.843262 714.909851,1081.473389 
	C715.105164,1087.088867 714.956238,1092.716187 714.956238,1098.591187 
	C712.892517,1098.591187 711.304260,1098.591187 709.030640,1098.591187 
	C709.030640,1092.839722 708.900940,1087.068237 709.072815,1081.305908 
	C709.203979,1076.908325 707.579529,1075.023438 702.951599,1075.061646 
	C691.921204,1075.152954 691.919861,1074.989136 691.920044,1085.791260 
	C691.920105,1089.926514 691.920044,1094.061890 691.920044,1098.545776 
	C690.174133,1098.668823 688.767700,1098.767822 686.571838,1098.922607 
	C686.571838,1095.905273 686.571838,1093.160156 686.571899,1089.932495 
z"/>
<path fill="#2A4168" opacity="1.000000" stroke="none" 
	d="
M1175.070312,1072.559326 
	C1180.717773,1072.562622 1185.880371,1072.452271 1191.035400,1072.601929 
	C1195.896362,1072.742920 1198.586914,1075.520264 1198.596313,1080.024414 
	C1198.605713,1084.522095 1195.923706,1087.126343 1190.933105,1087.177734 
	C1183.118774,1087.258057 1175.302856,1087.199097 1167.555176,1087.199097 
	C1165.685547,1093.911987 1166.683716,1095.396118 1172.962036,1095.420654 
	C1180.451294,1095.449829 1187.942383,1095.353394 1195.428711,1095.505615 
	C1196.582642,1095.529175 1197.715332,1096.592651 1198.857910,1097.175293 
	C1197.682495,1097.726196 1196.514404,1098.735718 1195.330322,1098.754395 
	C1186.678101,1098.891846 1178.021973,1098.899902 1169.368530,1098.808105 
	C1163.428345,1098.745117 1160.971924,1096.172485 1160.879272,1090.216187 
	C1160.832642,1087.221191 1160.853638,1084.224609 1160.876465,1081.229004 
	C1160.925415,1074.817627 1163.081665,1072.676147 1169.589478,1072.565552 
	C1171.253296,1072.537354 1172.917969,1072.559937 1175.070312,1072.559326 
M1193.803955,1081.130371 
	C1194.336670,1076.765381 1192.171021,1075.066772 1188.030884,1075.130493 
	C1183.382935,1075.202026 1178.733154,1075.143188 1174.084106,1075.147827 
	C1166.743774,1075.155151 1165.670166,1076.585205 1167.385010,1084.541504 
	C1174.746948,1084.541504 1182.199829,1084.669678 1189.640137,1084.421509 
	C1190.957275,1084.377563 1192.222046,1082.764404 1193.803955,1081.130371 
z"/>
<path fill="#2A4168" opacity="1.000000" stroke="none" 
	d="
M842.183716,1098.828247 
	C832.406433,1098.829590 830.713806,1097.144653 830.705261,1087.868042 
	C830.703125,1085.541016 830.677795,1083.213623 830.710327,1080.887085 
	C830.796570,1074.721436 832.873779,1072.637939 839.197754,1072.575073 
	C846.011963,1072.507202 852.827820,1072.511353 859.642151,1072.573364 
	C865.451843,1072.626099 868.220398,1075.034668 868.239807,1079.863281 
	C868.259705,1084.814575 865.590515,1087.158936 859.771545,1087.193237 
	C853.455566,1087.230347 847.139038,1087.221313 840.822998,1087.191284 
	C838.440674,1087.180054 836.018555,1086.828857 836.240356,1090.532959 
	C836.428162,1093.669922 837.505737,1095.494873 841.011047,1095.452393 
	C849.154419,1095.353516 857.301086,1095.356567 865.442932,1095.506592 
	C866.515869,1095.526367 867.568420,1096.647095 868.630371,1097.258057 
	C868.394165,1097.781372 868.158020,1098.304810 867.921814,1098.828125 
	C859.499817,1098.828125 851.077881,1098.828125 842.183716,1098.828247 
M836.370667,1078.998413 
	C836.370667,1080.637573 836.370667,1082.276855 836.370667,1084.493408 
	C843.730164,1084.493408 850.834229,1084.359009 857.929626,1084.550415 
	C861.431824,1084.644897 863.557556,1083.165771 863.625610,1079.877686 
	C863.696594,1076.453247 861.332581,1075.074341 857.969971,1075.127197 
	C852.493286,1075.213257 846.997681,1074.912109 841.545959,1075.290894 
	C839.824585,1075.410645 838.218079,1077.182129 836.370667,1078.998413 
z"/>
<path fill="#2A4168" opacity="1.000000" stroke="none" 
	d="
M765.987183,1084.091797 
	C769.122681,1084.091797 771.760071,1084.091797 774.330505,1084.091797 
	C775.443542,1075.713867 774.974854,1075.145752 767.360229,1075.142090 
	C760.530151,1075.138672 753.700012,1075.160400 746.870056,1075.127563 
	C745.520874,1075.121094 744.172607,1074.917603 742.823914,1074.804932 
	C742.762756,1074.375244 742.701599,1073.945557 742.640503,1073.515991 
	C743.522827,1073.169678 744.402893,1072.529053 745.287842,1072.522339 
	C754.449524,1072.452515 763.613831,1072.377319 772.773682,1072.529785 
	C778.194214,1072.619995 780.272949,1074.828125 780.444519,1080.218872 
	C780.561096,1083.880127 780.565674,1087.551025 780.447083,1091.212036 
	C780.289124,1096.087158 777.980591,1098.628174 773.044189,1098.773315 
	C765.554199,1098.993652 758.049988,1098.971436 750.557861,1098.795654 
	C745.755188,1098.682983 742.912292,1095.712524 742.859253,1091.373779 
	C742.804260,1086.874512 745.414734,1084.272583 750.496887,1084.125610 
	C755.490417,1083.980957 760.491272,1084.092651 765.987183,1084.091797 
M748.009705,1093.120605 
	C749.750671,1094.072876 751.434814,1095.692749 753.243713,1095.846802 
	C757.849976,1096.239014 762.511963,1095.976318 767.151672,1095.975952 
	C774.804077,1095.975342 775.656921,1094.923584 774.137085,1086.786377 
	C766.814575,1086.786377 759.393616,1086.664673 751.979797,1086.842407 
	C748.702393,1086.920776 747.445740,1089.145752 748.009705,1093.120605 
z"/>
<path fill="#2A4168" opacity="1.000000" stroke="none" 
	d="
M1227.995117,1098.828003 
	C1222.842773,1098.829102 1218.187866,1098.904663 1213.536133,1098.812378 
	C1208.028931,1098.703003 1205.471069,1096.395630 1205.185791,1091.076416 
	C1204.981323,1087.265991 1205.034058,1083.429443 1205.201416,1079.614624 
	C1205.388062,1075.361816 1207.564819,1072.690552 1212.025391,1072.634766 
	C1220.000854,1072.535034 1227.981934,1072.462769 1235.953857,1072.656616 
	C1240.286499,1072.761841 1243.118042,1076.043945 1242.989014,1080.097656 
	C1242.855957,1084.270142 1240.047363,1087.108398 1235.628784,1087.163696 
	C1227.659546,1087.263672 1219.688110,1087.192017 1211.772217,1087.192017 
	C1210.110840,1094.323730 1210.908936,1095.409424 1217.680176,1095.424072 
	C1224.992798,1095.439941 1232.307007,1095.349976 1239.616333,1095.505249 
	C1240.749023,1095.529419 1241.859131,1096.616333 1242.979614,1097.211914 
	C1241.807373,1097.750610 1240.657471,1098.686523 1239.458618,1098.753906 
	C1235.813721,1098.958618 1232.150146,1098.828003 1227.995117,1098.828003 
M1221.530518,1084.467896 
	C1225.180298,1084.468384 1228.834229,1084.362671 1232.478760,1084.500244 
	C1235.911133,1084.629883 1238.096191,1083.180664 1238.079834,1079.751587 
	C1238.062866,1076.211426 1235.607300,1075.079468 1232.310791,1075.150146 
	C1227.833496,1075.246216 1223.352661,1075.174316 1218.873291,1075.174683 
	C1211.027588,1075.175171 1210.150879,1076.264648 1211.702393,1084.467651 
	C1214.613037,1084.467651 1217.585083,1084.467651 1221.530518,1084.467896 
z"/>
<path fill="#2A4168" opacity="1.000000" stroke="none" 
	d="
M1036.150635,1082.359131 
	C1036.151123,1085.461792 1036.234497,1088.124512 1036.135132,1090.780640 
	C1035.936890,1096.079224 1033.396118,1098.701172 1028.045776,1098.794678 
	C1020.401367,1098.928345 1012.750793,1098.940918 1005.106934,1098.794067 
	C1000.359863,1098.702881 997.679565,1096.125000 997.400330,1091.416504 
	C997.164551,1087.441528 997.239502,1083.436523 997.394775,1079.453247 
	C997.562988,1075.137207 999.961609,1072.578369 1004.289673,1072.499146 
	C1012.597778,1072.347046 1020.916382,1072.282227 1029.219849,1072.535034 
	C1034.474609,1072.695068 1035.995483,1075.067749 1036.150635,1082.359131 
M1003.608765,1091.228027 
	C1003.304626,1094.417358 1004.962646,1095.860229 1007.957275,1095.890259 
	C1013.759705,1095.948242 1019.563171,1095.901245 1025.366211,1095.913574 
	C1028.378662,1095.920044 1030.038574,1094.552246 1030.036255,1091.431396 
	C1030.033447,1087.452148 1030.437012,1083.411255 1029.840820,1079.523315 
	C1029.592285,1077.902710 1027.310059,1075.486816 1025.794922,1075.362915 
	C1019.865662,1074.878540 1013.873169,1075.138794 1007.904602,1075.176636 
	C1004.858521,1075.195923 1003.388245,1076.742676 1003.501770,1079.856567 
	C1003.628479,1083.331543 1003.626160,1086.811279 1003.608765,1091.228027 
z"/>
<path fill="#2A4168" opacity="1.000000" stroke="none" 
	d="
M990.965515,1075.443237 
	C990.959900,1080.730469 991.046387,1085.565918 990.934753,1090.396606 
	C990.802063,1096.140137 988.321777,1098.733276 982.720337,1098.805176 
	C974.055176,1098.916626 965.386353,1098.900879 956.722534,1098.746338 
	C955.641418,1098.726929 954.581238,1097.536499 953.511353,1096.888794 
	C954.567017,1096.400146 955.615601,1095.506592 956.679443,1095.488281 
	C963.843811,1095.364258 971.011536,1095.443115 978.178040,1095.422241 
	C985.147583,1095.401978 986.177856,1094.093750 984.816650,1086.646240 
	C978.275085,1086.646240 971.656677,1086.660522 965.038391,1086.642944 
	C953.781250,1086.612915 952.178162,1084.802490 953.182556,1072.685913 
	C954.792480,1072.588989 956.486755,1072.486938 957.954224,1072.398560 
	C958.385498,1073.139404 958.674683,1073.409668 958.689392,1073.693970 
	C959.201233,1083.585571 959.197449,1083.585815 969.016785,1083.585571 
	C974.306885,1083.585449 979.597046,1083.585449 985.250488,1083.585449 
	C985.250488,1079.848389 985.250488,1076.576050 985.250488,1073.006348 
	C987.750793,1072.776733 990.450439,1070.417358 990.965515,1075.443237 
z"/>
<path fill="#2A4168" opacity="1.000000" stroke="none" 
	d="
M1398.000000,1098.826416 
	C1393.843750,1098.827637 1390.182129,1098.903442 1386.524536,1098.812866 
	C1380.938965,1098.674805 1378.274048,1096.028198 1378.166260,1090.559814 
	C1378.097534,1087.067627 1378.172607,1083.572876 1378.150757,1080.079468 
	C1378.121948,1075.483521 1380.368652,1072.663208 1384.944824,1072.547607 
	C1393.421021,1072.333618 1401.910889,1072.348999 1410.387207,1072.570679 
	C1414.726440,1072.684204 1416.956909,1075.369263 1416.981079,1079.747192 
	C1417.002197,1083.573242 1417.098389,1087.403687 1416.958984,1091.224854 
	C1416.786987,1095.944702 1414.224609,1098.562988 1409.474121,1098.797363 
	C1405.823242,1098.977661 1402.156250,1098.828857 1398.000000,1098.826416 
M1384.651123,1093.546631 
	C1385.813477,1094.335083 1386.953125,1095.763062 1388.142090,1095.805420 
	C1394.448853,1096.030273 1400.785889,1096.158691 1407.068726,1095.708618 
	C1408.450928,1095.609619 1410.547241,1093.150757 1410.765381,1091.565186 
	C1411.304199,1087.651001 1410.980225,1083.612671 1410.933838,1079.625000 
	C1410.898438,1076.592407 1409.374512,1075.102539 1406.254395,1075.140137 
	C1400.604980,1075.208130 1394.951294,1075.264282 1389.304688,1075.122314 
	C1385.603149,1075.029297 1384.180054,1076.875977 1384.199829,1080.269409 
	C1384.223999,1084.420898 1384.298218,1088.572021 1384.651123,1093.546631 
z"/>
<path fill="#2A4168" opacity="1.000000" stroke="none" 
	d="
M818.629761,1078.129639 
	C818.630981,1076.203369 818.630981,1074.720703 818.630981,1072.841919 
	C820.494385,1072.841919 822.164246,1072.841919 823.307251,1072.841919 
	C823.307251,1081.463013 823.307251,1089.817261 823.307251,1098.630615 
	C822.438782,1098.682617 820.881042,1098.775879 818.621643,1098.911011 
	C818.621643,1096.188477 819.115173,1093.622192 818.468018,1091.385986 
	C817.934570,1089.542725 816.127625,1086.765137 814.751282,1086.684570 
	C806.993042,1086.229980 799.194336,1086.465088 790.903931,1086.465088 
	C790.903931,1090.678467 790.903931,1094.431519 790.903931,1098.552734 
	C789.021484,1098.650879 787.632751,1098.723389 785.975830,1098.809814 
	C785.975830,1090.043457 785.975830,1081.609009 785.975830,1072.733276 
	C787.252930,1072.592896 788.629395,1072.441528 790.592163,1072.225708 
	C790.592163,1076.010376 790.592163,1079.408569 790.592163,1083.514160 
	C799.189697,1083.514160 807.274353,1083.714111 815.326721,1083.293945 
	C816.506226,1083.232422 817.531799,1080.220337 818.629761,1078.129639 
z"/>
<path fill="#2A4168" opacity="1.000000" stroke="none" 
	d="
M1042.511597,1076.446045 
	C1041.889282,1071.398682 1044.791260,1072.311035 1047.863403,1072.721558 
	C1047.863403,1078.464111 1047.979736,1084.092407 1047.823486,1089.713135 
	C1047.715088,1093.609497 1048.875366,1095.584473 1053.241211,1095.320801 
	C1058.555054,1094.999878 1063.907959,1095.098877 1069.234131,1095.291016 
	C1072.748413,1095.417725 1074.022217,1093.920044 1073.964233,1090.570068 
	C1073.863525,1084.750000 1073.936157,1078.926880 1073.936157,1072.761108 
	C1075.888184,1072.761108 1077.608765,1072.761108 1079.785522,1072.761108 
	C1079.785522,1079.169922 1079.992065,1085.458618 1079.716309,1091.726074 
	C1079.516846,1096.261475 1076.508667,1098.637329 1072.128662,1098.744263 
	C1064.633545,1098.927246 1057.127197,1098.942383 1049.632935,1098.745605 
	C1045.108643,1098.626709 1042.628906,1095.957153 1042.540527,1091.386230 
	C1042.447144,1086.554810 1042.514893,1081.720459 1042.511597,1076.446045 
z"/>
<path fill="#2A4168" opacity="1.000000" stroke="none" 
	d="
M1435.027710,1086.645996 
	C1432.885864,1086.645752 1431.240723,1086.645752 1428.922607,1086.645752 
	C1428.922607,1090.666748 1428.922607,1094.541382 1428.922607,1098.628174 
	C1426.823486,1098.628174 1425.396973,1098.628174 1423.576172,1098.628174 
	C1423.576172,1091.736694 1423.202515,1084.935181 1423.808472,1078.221924 
	C1423.985718,1076.257812 1426.881958,1073.042358 1428.647461,1072.962646 
	C1439.512695,1072.472900 1450.411011,1072.717041 1461.298218,1072.717041 
	C1461.393188,1073.183960 1461.488159,1073.651001 1461.583130,1074.117920 
	C1460.475830,1074.459473 1459.371826,1075.084106 1458.260742,1075.096924 
	C1450.779663,1075.183350 1443.297119,1075.131226 1435.815063,1075.140991 
	C1429.245483,1075.149658 1428.232544,1076.401001 1429.334717,1084.312256 
	C1439.931885,1084.312256 1450.705078,1084.312256 1461.478394,1084.312256 
	C1461.460083,1085.090210 1461.441772,1085.868164 1461.423462,1086.646118 
	C1452.790527,1086.646118 1444.157471,1086.646118 1435.027710,1086.645996 
z"/>
<path fill="#2A4168" opacity="1.000000" stroke="none" 
	d="
M1141.976318,1072.488525 
	C1146.480469,1072.488647 1150.489868,1072.488647 1154.499146,1072.488647 
	C1154.542480,1073.119019 1154.585693,1073.749512 1154.629028,1074.379883 
	C1153.557129,1074.635132 1152.487061,1075.102539 1151.413086,1075.111450 
	C1143.921875,1075.174072 1136.429932,1075.132935 1128.938232,1075.142700 
	C1122.298828,1075.151489 1121.248291,1076.406616 1122.241455,1083.732422 
	C1131.084106,1083.732422 1140.013184,1083.645264 1148.937988,1083.804199 
	C1150.776489,1083.836914 1152.598511,1084.787964 1154.428223,1085.315796 
	C1152.669800,1085.759888 1150.916504,1086.562012 1149.151978,1086.587891 
	C1140.214355,1086.718872 1131.274048,1086.648193 1121.804077,1086.648193 
	C1121.804077,1090.803589 1121.804077,1094.555908 1121.804077,1098.575439 
	C1119.862793,1098.575439 1118.456787,1098.575439 1117.057983,1098.575439 
	C1116.841553,1098.278687 1116.486206,1098.018188 1116.482300,1097.752686 
	C1116.395508,1091.765015 1116.149292,1085.769897 1116.353027,1079.790527 
	C1116.522949,1074.802490 1118.855103,1072.685181 1124.002197,1072.538086 
	C1129.824341,1072.371582 1135.654785,1072.492310 1141.976318,1072.488525 
z"/>
<path fill="#285293" opacity="1.000000" stroke="none" 
	d="
M1560.275757,837.173279 
	C1552.734131,847.055969 1540.143311,847.443604 1533.838379,838.305908 
	C1529.665527,832.257996 1530.093628,824.673340 1534.903564,819.434021 
	C1539.948120,813.939087 1547.939575,812.597046 1554.494385,816.143860 
	C1560.663574,819.482117 1563.699829,826.662781 1561.824951,833.646484 
	C1561.526855,834.756836 1560.917969,835.783752 1560.275757,837.173279 
M1554.575684,838.655396 
	C1559.699219,835.300720 1560.042603,826.537109 1556.156616,821.631409 
	C1552.290649,816.750977 1545.732300,815.476440 1540.510010,818.710266 
	C1534.976562,822.136841 1533.001465,829.550232 1536.062622,835.403076 
	C1538.925537,840.877075 1545.292725,843.466187 1550.893677,841.153320 
	C1552.164429,840.628662 1553.007202,839.067444 1553.998779,838.016724 
	C1553.998779,838.016724 1553.963257,838.063416 1554.575684,838.655396 
z"/>
<path fill="#2A4168" opacity="1.000000" stroke="none" 
	d="
M899.695190,1072.418213 
	C905.521057,1072.369995 910.916992,1072.369995 916.312927,1072.369995 
	C916.303162,1073.284180 916.293396,1074.198486 916.283691,1075.112671 
	C912.676941,1075.112671 909.070190,1075.108643 905.463440,1075.113525 
	C898.615845,1075.122803 898.297668,1075.432007 898.286133,1082.066772 
	C898.280884,1085.062622 898.348083,1088.060303 898.265076,1091.053955 
	C898.122498,1096.195923 896.140991,1098.487915 891.114624,1098.761963 
	C886.467896,1099.015259 881.796021,1098.889771 877.138611,1098.783691 
	C876.385376,1098.766602 875.649658,1097.983154 874.905823,1097.553833 
	C875.727234,1097.023926 876.529480,1096.075195 877.373413,1096.036499 
	C881.027161,1095.869141 884.693359,1095.985107 888.354736,1095.964233 
	C891.380798,1095.947021 892.945862,1094.531494 892.870605,1091.364502 
	C892.783569,1087.704956 892.913208,1084.040283 892.828125,1080.380615 
	C892.723145,1075.862427 894.634277,1073.083618 899.695190,1072.418213 
z"/>
<path fill="#2A4168" opacity="1.000000" stroke="none" 
	d="
M1489.858276,1086.979736 
	C1489.858276,1090.957886 1489.858276,1094.441162 1489.858276,1098.418091 
	C1488.103271,1098.577515 1486.558716,1098.717896 1484.424316,1098.911743 
	C1484.424316,1090.916992 1484.424316,1083.325684 1484.424316,1075.061279 
	C1478.573608,1075.061279 1473.250244,1075.061279 1467.337769,1075.061279 
	C1469.904053,1072.223267 1501.021362,1071.619995 1506.220337,1074.601074 
	C1500.908569,1074.601074 1495.596680,1074.601074 1489.858276,1074.601074 
	C1489.858276,1079.207275 1489.858276,1082.846191 1489.858276,1086.979736 
z"/>
<path fill="#2A4168" opacity="1.000000" stroke="none" 
	d="
M1362.004883,1072.354248 
	C1365.609009,1072.354370 1368.737549,1072.354370 1371.866211,1072.354370 
	C1371.875122,1073.273804 1371.884033,1074.193359 1371.893066,1075.112793 
	C1368.843018,1075.112793 1365.792969,1075.113037 1362.742920,1075.112793 
	C1353.790527,1075.111816 1353.790649,1075.111694 1353.789307,1083.843628 
	C1353.787231,1098.826660 1353.787109,1098.826660 1338.897705,1098.826416 
	C1336.033936,1098.826294 1333.170166,1098.826416 1330.306396,1098.826416 
	C1330.219238,1098.222290 1330.132080,1097.618286 1330.044800,1097.014160 
	C1331.036987,1096.665527 1332.019897,1096.051636 1333.023071,1096.016479 
	C1336.512329,1095.893921 1340.010132,1095.908447 1343.501831,1095.991821 
	C1346.875366,1096.072266 1348.382324,1094.464478 1348.334351,1091.162476 
	C1348.293335,1088.334839 1348.325317,1085.506226 1348.331055,1082.677979 
	C1348.348511,1074.170410 1350.103638,1072.395142 1358.534668,1072.354004 
	C1359.532837,1072.349121 1360.531128,1072.353882 1362.004883,1072.354248 
z"/>
<path fill="#2A4168" opacity="1.000000" stroke="none" 
	d="
M1249.329712,1076.411987 
	C1248.807495,1071.260254 1251.817749,1072.490845 1254.865234,1072.798584 
	C1254.865234,1078.871460 1254.977905,1084.796753 1254.825073,1090.715210 
	C1254.725342,1094.580078 1256.417114,1096.109253 1260.185303,1096.055176 
	C1267.822754,1095.945312 1275.462769,1095.985596 1283.101440,1096.013916 
	C1284.606445,1096.019531 1286.110596,1096.250488 1287.615234,1096.377441 
	C1287.660034,1096.904175 1287.704956,1097.430908 1287.749878,1097.957520 
	C1286.709717,1098.248291 1285.671265,1098.783691 1284.629150,1098.791260 
	C1275.496094,1098.856934 1266.361450,1098.904541 1257.229126,1098.799072 
	C1251.695557,1098.735229 1249.482056,1096.427124 1249.358032,1090.808350 
	C1249.255371,1086.160767 1249.332886,1081.509155 1249.329712,1076.411987 
z"/>
<path fill="#F39202" opacity="1.000000" stroke="none" 
	d="
M367.666931,858.049683 
	C367.448669,858.859985 366.929749,859.794434 366.073669,860.807495 
	C366.279785,859.982056 366.823059,859.077881 367.666931,858.049683 
z"/>
<path fill="#F39202" opacity="1.000000" stroke="none" 
	d="
M365.589905,860.854614 
	C365.689270,861.113159 365.493011,861.459900 365.004028,861.909302 
	C364.905609,861.655579 365.099945,861.299133 365.589905,860.854614 
z"/>
<path fill="#E94F1C" opacity="1.000000" stroke="none" 
	d="
M610.252441,981.029114 
	C610.077576,980.861389 610.161438,980.603027 610.437744,980.203552 
	C610.629333,980.347534 610.589661,980.639587 610.252441,981.029114 
z"/>
<path fill="#FFFEFE" opacity="1.000000" stroke="none" 
	d="
M560.883057,938.584106 
	C560.405090,959.572510 554.273865,978.012939 540.988220,994.121948 
	C513.429565,1027.537109 460.240631,1032.971558 426.948029,1005.218567 
	C400.309509,983.012451 391.110931,954.619446 398.023987,920.392334 
	C403.994019,900.591614 414.919220,884.783691 431.697784,873.147217 
	C464.308716,850.530457 506.572327,854.373108 534.943176,882.139648 
	C550.781982,897.641113 559.604370,916.073669 560.883057,938.584106 
z"/>
<path fill="#FEFEFE" opacity="1.000000" stroke="none" 
	d="
M800.736084,996.674683 
	C788.501587,1013.591675 771.453369,1017.897461 752.342957,1015.661377 
	C733.573730,1013.465393 720.807922,1002.529541 714.269226,985.125366 
	C706.349060,964.044128 706.056396,942.373047 713.081543,921.000549 
	C720.337463,898.925476 736.857788,887.293274 759.608459,887.067627 
	C783.134766,886.834229 800.482666,898.009033 807.619873,920.305054 
	C815.939453,946.294495 815.406006,972.098572 800.736084,996.674683 
z"/>
<path fill="#FEFEFE" opacity="1.000000" stroke="none" 
	d="
M1188.576416,993.310791 
	C1184.618896,1012.306519 1166.279419,1023.197815 1148.153198,1017.684509 
	C1136.862427,1014.250305 1132.983643,997.648254 1141.686157,988.835876 
	C1144.291016,986.198059 1147.732910,983.807495 1151.230347,982.735107 
	C1163.588013,978.946167 1176.136108,975.777649 1188.677979,972.355896 
	C1188.677979,979.065369 1188.677979,985.974182 1188.576416,993.310791 
z"/>
<path fill="#FEFEFE" opacity="1.000000" stroke="none" 
	d="
M1193.657471,1081.503174 
	C1192.222046,1082.764404 1190.957275,1084.377563 1189.640137,1084.421509 
	C1182.199829,1084.669678 1174.746948,1084.541504 1167.385010,1084.541504 
	C1165.670166,1076.585205 1166.743774,1075.155151 1174.084106,1075.147827 
	C1178.733154,1075.143188 1183.382935,1075.202026 1188.030884,1075.130493 
	C1192.171021,1075.066772 1194.336670,1076.765381 1193.657471,1081.503174 
z"/>
<path fill="#FEFEFE" opacity="1.000000" stroke="none" 
	d="
M836.464844,1078.598145 
	C838.218079,1077.182129 839.824585,1075.410645 841.545959,1075.290894 
	C846.997681,1074.912109 852.493286,1075.213257 857.969971,1075.127197 
	C861.332581,1075.074341 863.696594,1076.453247 863.625610,1079.877686 
	C863.557556,1083.165771 861.431824,1084.644897 857.929626,1084.550415 
	C850.834229,1084.359009 843.730164,1084.493408 836.370667,1084.493408 
	C836.370667,1082.276855 836.370667,1080.637573 836.464844,1078.598145 
z"/>
<path fill="#FEFEFE" opacity="1.000000" stroke="none" 
	d="
M747.879028,1092.708984 
	C747.445740,1089.145752 748.702393,1086.920776 751.979797,1086.842407 
	C759.393616,1086.664673 766.814575,1086.786377 774.137085,1086.786377 
	C775.656921,1094.923584 774.804077,1095.975342 767.151672,1095.975952 
	C762.511963,1095.976318 757.849976,1096.239014 753.243713,1095.846802 
	C751.434814,1095.692749 749.750671,1094.072876 747.879028,1092.708984 
z"/>
<path fill="#FEFEFE" opacity="1.000000" stroke="none" 
	d="
M1221.043701,1084.467773 
	C1217.585083,1084.467651 1214.613037,1084.467651 1211.702393,1084.467651 
	C1210.150879,1076.264648 1211.027588,1075.175171 1218.873291,1075.174683 
	C1223.352661,1075.174316 1227.833496,1075.246216 1232.310791,1075.150146 
	C1235.607300,1075.079468 1238.062866,1076.211426 1238.079834,1079.751587 
	C1238.096191,1083.180664 1235.911133,1084.629883 1232.478760,1084.500244 
	C1228.834229,1084.362671 1225.180298,1084.468384 1221.043701,1084.467773 
z"/>
<path fill="#FEFEFE" opacity="1.000000" stroke="none" 
	d="
M1003.644348,1090.758545 
	C1003.626160,1086.811279 1003.628479,1083.331543 1003.501770,1079.856567 
	C1003.388245,1076.742676 1004.858521,1075.195923 1007.904602,1075.176636 
	C1013.873169,1075.138794 1019.865662,1074.878540 1025.794922,1075.362915 
	C1027.310059,1075.486816 1029.592285,1077.902710 1029.840820,1079.523315 
	C1030.437012,1083.411255 1030.033447,1087.452148 1030.036255,1091.431396 
	C1030.038574,1094.552246 1028.378662,1095.920044 1025.366211,1095.913574 
	C1019.563171,1095.901245 1013.759705,1095.948242 1007.957275,1095.890259 
	C1004.962646,1095.860229 1003.304626,1094.417358 1003.644348,1090.758545 
z"/>
<path fill="#FEFEFE" opacity="1.000000" stroke="none" 
	d="
M1384.500977,1093.135010 
	C1384.298218,1088.572021 1384.223999,1084.420898 1384.199829,1080.269409 
	C1384.180054,1076.875977 1385.603149,1075.029297 1389.304688,1075.122314 
	C1394.951294,1075.264282 1400.604980,1075.208130 1406.254395,1075.140137 
	C1409.374512,1075.102539 1410.898438,1076.592407 1410.933838,1079.625000 
	C1410.980225,1083.612671 1411.304199,1087.651001 1410.765381,1091.565186 
	C1410.547241,1093.150757 1408.450928,1095.609619 1407.068726,1095.708618 
	C1400.785889,1096.158691 1394.448853,1096.030273 1388.142090,1095.805420 
	C1386.953125,1095.763062 1385.813477,1094.335083 1384.500977,1093.135010 
z"/>
<path fill="#FEFEFE" opacity="1.000000" stroke="none" 
	d="
M1554.047119,837.983398 
	C1553.007202,839.067444 1552.164429,840.628662 1550.893677,841.153320 
	C1545.292725,843.466187 1538.925537,840.877075 1536.062622,835.403076 
	C1533.001465,829.550232 1534.976562,822.136841 1540.510010,818.710266 
	C1545.732300,815.476440 1552.290649,816.750977 1556.156616,821.631409 
	C1560.042603,826.537109 1559.699219,835.300720 1554.195557,837.979248 
	C1553.132935,834.824280 1552.450317,832.345581 1551.767822,829.866821 
	C1552.495728,827.863586 1553.336426,824.088135 1552.698608,823.819214 
	C1549.166992,822.330322 1545.275757,821.694885 1540.690308,820.565979 
	C1540.690308,825.656433 1540.528564,829.116211 1540.758179,832.549866 
	C1540.873535,834.274048 1541.700806,835.950684 1542.205933,837.648865 
	C1542.887329,836.106750 1543.572632,834.566345 1544.247559,833.021423 
	C1544.439697,832.581482 1544.601929,832.128601 1545.263062,830.449524 
	C1546.861816,831.937134 1548.784668,832.877380 1549.126709,834.220154 
	C1549.850586,837.062561 1551.540649,837.866150 1554.047119,837.983398 
z"/>
<path fill="#285293" opacity="1.000000" stroke="none" 
	d="
M1554.022949,838.000122 
	C1551.540649,837.866150 1549.850586,837.062561 1549.126709,834.220154 
	C1548.784668,832.877380 1546.861816,831.937134 1545.263062,830.449524 
	C1544.601929,832.128601 1544.439697,832.581482 1544.247559,833.021423 
	C1543.572632,834.566345 1542.887329,836.106750 1542.205933,837.648865 
	C1541.700806,835.950684 1540.873535,834.274048 1540.758179,832.549866 
	C1540.528564,829.116211 1540.690308,825.656433 1540.690308,820.565979 
	C1545.275757,821.694885 1549.166992,822.330322 1552.698608,823.819214 
	C1553.336426,824.088135 1552.495728,827.863586 1551.767822,829.866821 
	C1552.450317,832.345581 1553.132935,834.824280 1553.889404,837.683228 
	C1553.963257,838.063416 1553.998779,838.016724 1554.022949,838.000122 
M1548.466309,828.210815 
	C1548.498901,827.038208 1548.941528,825.611023 1548.425049,824.779541 
	C1548.059814,824.191833 1546.154785,823.975037 1545.384277,824.401184 
	C1544.709595,824.774414 1544.120850,826.882141 1544.435059,827.160034 
	C1545.288330,827.914856 1546.640747,828.105286 1548.466309,828.210815 
z"/>
<path fill="#FEFEFE" opacity="1.000000" stroke="none" 
	d="
M1548.130859,828.365173 
	C1546.640747,828.105286 1545.288330,827.914856 1544.435059,827.160034 
	C1544.120850,826.882141 1544.709595,824.774414 1545.384277,824.401184 
	C1546.154785,823.975037 1548.059814,824.191833 1548.425049,824.779541 
	C1548.941528,825.611023 1548.498901,827.038208 1548.130859,828.365173 
z"/>
</svg>